<svg width="14" height="11" viewBox="0 0 14 11" fill="none" xmlns="http://www.w3.org/2000/svg">
<path d="M13.8685 10.1191L0.78769 0.0754103C0.751811 0.0471966 0.710626 0.0262 0.666486 0.0136193C0.622346 0.00103855 0.576114 -0.00287988 0.530432 0.00208769C0.48475 0.00705526 0.440512 0.0208116 0.400242 0.0425711C0.359973 0.0643307 0.324462 0.0936675 0.295736 0.128906L0.0769927 0.397246C0.0481995 0.432497 0.026766 0.472979 0.0139189 0.516374C0.00107165 0.55977 -0.00293715 0.605227 0.00212184 0.650146C0.00718083 0.695065 0.0212083 0.738563 0.0434016 0.778151C0.0655949 0.81774 0.0955184 0.852642 0.13146 0.880859L13.2123 10.9246C13.2482 10.9528 13.2894 10.9738 13.3335 10.9864C13.3777 10.999 13.4239 11.0029 13.4696 10.9979C13.5153 10.9929 13.5595 10.9792 13.5998 10.9574C13.64 10.9357 13.6755 10.9063 13.7043 10.8711L13.923 10.6028C13.9518 10.5675 13.9732 10.527 13.9861 10.4836C13.9989 10.4402 14.0029 10.3948 13.9979 10.3499C13.9928 10.3049 13.9788 10.2614 13.9566 10.2218C13.9344 10.1823 13.9045 10.1474 13.8685 10.1191ZM6.4923 3.14682L9.44074 5.41084C9.39218 4.12307 8.32296 3.09375 7 3.09375C6.82935 3.09406 6.65919 3.11185 6.4923 3.14682ZM7.5077 7.8534L4.55926 5.58938C4.60804 6.87693 5.67726 7.90625 7 7.90625C7.17064 7.90589 7.34078 7.88818 7.5077 7.8534ZM7 2.40625C9.1579 2.40625 11.1362 3.58789 12.2046 5.5C11.9427 5.97059 11.6191 6.40541 11.2421 6.79336L12.0676 7.42715C12.5272 6.94422 12.9167 6.40118 13.2248 5.81346C13.2748 5.71624 13.3009 5.60883 13.3009 5.49989C13.3009 5.39096 13.2748 5.28355 13.2248 5.18633C12.0374 2.91307 9.68901 1.375 7 1.375C6.19721 1.375 5.43139 1.52539 4.71129 1.77912L5.72648 2.55879C6.14078 2.46641 6.56514 2.40625 7 2.40625ZM7 8.59375C4.8421 8.59375 2.864 7.41211 1.79544 5.5C2.05767 5.02942 2.38162 4.59466 2.759 4.20686L1.93347 3.57307C1.47392 4.05592 1.08459 4.59889 0.776534 5.18654C0.726495 5.28376 0.700423 5.39117 0.700423 5.50011C0.700423 5.60904 0.726495 5.71645 0.776534 5.81367C1.96278 8.08693 4.31121 9.625 7 9.625C7.80279 9.625 8.56861 9.47354 9.28871 9.22088L8.27352 8.44143C7.85922 8.53359 7.43508 8.59375 7 8.59375Z" fill="#C4C4C4"/>
</svg>
