<svg width="16" height="16" viewBox="0 0 16 16" fill="none" xmlns="http://www.w3.org/2000/svg">
<g clip-path="url(#clip0)">
<path d="M9.32484 3.2083L9.32439 3.20877L8.73782 3.8132L8.02019 4.55269L7.30256 3.8132L6.71599 3.20877L6.71484 3.20759C5.54358 1.99666 3.71032 1.85968 2.52647 2.86834C1.10226 4.08427 1.02347 6.28048 2.30121 7.60191C2.30125 7.60196 2.3013 7.60201 2.30135 7.60206C2.30144 7.60216 2.30153 7.60225 2.30163 7.60235L8.0187 13.5056L13.7362 7.60191L13.7364 7.60171C15.0167 6.28045 14.9382 4.08454 13.5141 2.86853L9.32484 3.2083ZM9.32484 3.2083C10.4997 1.99604 12.3305 1.86001 13.514 2.86842L9.32484 3.2083Z" fill="white" stroke="#E1E1E1" stroke-width="2"/>
</g>
<defs>
<clipPath id="clip0">
<rect width="15.2447" height="15.2447" fill="white" transform="translate(0.397705 0.244141)"/>
</clipPath>
</defs>
</svg>
