<svg width="34" height="17" viewBox="0 0 34 17" fill="none" xmlns="http://www.w3.org/2000/svg">
<path d="M32.4253 16.986C32.4377 16.9835 32.4498 16.9801 32.4621 16.9769C32.4725 16.9742 32.483 16.972 32.4932 16.9688C32.5051 16.9651 32.5167 16.9605 32.5284 16.9563C32.5387 16.9525 32.5491 16.9491 32.5593 16.9447C32.5703 16.9401 32.5809 16.9346 32.5915 16.9295C32.6019 16.9245 32.6125 16.9198 32.6227 16.9142C32.633 16.9087 32.6426 16.9024 32.6525 16.8963C32.6627 16.8901 32.673 16.8843 32.683 16.8775C32.6935 16.8704 32.7034 16.8624 32.7136 16.8546C32.7222 16.8481 32.731 16.842 32.7393 16.8351C32.7548 16.8222 32.7695 16.8084 32.7838 16.7942C32.7864 16.7917 32.7892 16.7896 32.7917 16.787C32.7944 16.7842 32.7967 16.7812 32.7993 16.7784C32.813 16.7641 32.8264 16.7493 32.839 16.7338C32.8463 16.7247 32.8527 16.7152 32.8596 16.7058C32.8666 16.6961 32.8741 16.6867 32.8807 16.6766C32.8877 16.6658 32.8939 16.6547 32.9004 16.6436C32.9059 16.6343 32.9117 16.6252 32.9167 16.6156C32.9227 16.6045 32.9276 16.5929 32.9329 16.5816C32.9375 16.5715 32.9425 16.5615 32.9468 16.5511C32.9514 16.54 32.955 16.5286 32.959 16.5173C32.9629 16.5062 32.9671 16.4953 32.9705 16.484C32.9739 16.4726 32.9764 16.4609 32.9792 16.4493C32.982 16.4379 32.9853 16.4266 32.9874 16.4151C32.9901 16.4014 32.9917 16.3876 32.9936 16.3739C32.995 16.3642 32.9968 16.3546 32.9978 16.3448C33.0001 16.3206 33.0014 16.2965 33.0014 16.2722V0.727271C33.0014 0.325526 32.681 0 32.2857 0H9.74238C9.73608 0 9.72997 0.000775223 9.72368 0.000969162C9.71003 0.00135704 9.69648 0.00193916 9.68293 0.0031028C9.67215 0.00397552 9.66146 0.00523637 9.65077 0.00669091C9.63856 0.00824242 9.62644 0.0100847 9.61432 0.012315C9.60297 0.0143514 9.59171 0.0167754 9.58054 0.0193936C9.56919 0.0221087 9.55783 0.0250181 9.54657 0.0283151C9.53541 0.031515 9.52444 0.0350054 9.51356 0.0386903C9.50239 0.042569 9.49123 0.0466423 9.48026 0.0511029C9.46986 0.0552726 9.45965 0.0595387 9.44953 0.0641933C9.43827 0.0693326 9.42711 0.0748605 9.41604 0.0805817C9.40659 0.0855272 9.39734 0.0905693 9.38818 0.0959026C9.37711 0.102303 9.36623 0.10909 9.35545 0.116072C9.34657 0.12189 9.33789 0.127902 9.3293 0.134011C9.31918 0.141284 9.30917 0.148848 9.29934 0.156799C9.29037 0.164072 9.28159 0.171539 9.27291 0.179199C9.26432 0.18686 9.25583 0.19452 9.24752 0.202666C9.23808 0.211878 9.22901 0.221478 9.22004 0.231175C9.21556 0.236023 9.21079 0.24029 9.20649 0.245236C9.20392 0.248145 9.20191 0.251345 9.19943 0.254254C9.19046 0.264824 9.18206 0.275878 9.17367 0.287029C9.16756 0.295175 9.16126 0.30332 9.15554 0.311659C9.14809 0.32252 9.14122 0.333672 9.13435 0.34492C9.12872 0.354132 9.1229 0.363247 9.11775 0.372653C9.11174 0.383514 9.10649 0.394665 9.10105 0.405817C9.09609 0.415999 9.09094 0.426181 9.08645 0.436556C9.08178 0.447514 9.07767 0.458859 9.07357 0.470011C9.06947 0.480968 9.06527 0.491829 9.06174 0.502883C9.05821 0.514035 9.05534 0.52538 9.05229 0.536725C9.04924 0.548362 9.04599 0.559901 9.04342 0.571634C9.04103 0.582592 9.03941 0.593744 9.0375 0.604798C9.0354 0.617404 9.0333 0.63001 9.03178 0.642616C9.03054 0.653089 9.02996 0.663755 9.0292 0.674422C9.02824 0.687998 9.02739 0.701574 9.02719 0.715246C9.0271 0.719222 9.02662 0.723101 9.02662 0.727077V5.21211C9.02662 5.61385 9.34695 5.93938 9.74228 5.93938C10.1376 5.93938 10.4579 5.61385 10.4579 5.21211V2.3423L16.8207 8.06708C16.7875 8.09084 16.7556 8.11712 16.7258 8.14727L10.4579 14.5169V9.73748C10.4579 9.33573 10.1375 9.0102 9.74219 9.0102C9.34686 9.0102 9.02653 9.33573 9.02653 9.73748V10.6261H5.32894C4.93361 10.6261 4.61328 10.9516 4.61328 11.3534C4.61328 11.7551 4.93361 12.0806 5.32894 12.0806H9.02653V16.2727C9.02653 16.6745 9.34686 17 9.74219 17H32.2855C32.3091 17 32.3327 16.9987 32.3561 16.9964C32.3671 16.9953 32.3777 16.9932 32.3885 16.9917C32.4009 16.9899 32.4131 16.9885 32.4253 16.986ZM31.57 14.517L25.3019 8.14737C25.2979 8.1433 25.2936 8.1399 25.2895 8.13603L30.0017 4.0733C30.303 3.81342 30.3401 3.35456 30.0843 3.04823C29.8288 2.7421 29.3773 2.70428 29.0756 2.96426L21.0239 9.9063L11.6302 1.45464H31.57V14.517ZM17.738 9.17602C17.7891 9.12414 17.8305 9.06635 17.8628 9.00487L20.5395 11.4131C20.6748 11.5348 20.8443 11.5959 21.014 11.5959C21.1787 11.5959 21.3433 11.5384 21.477 11.4232L24.2049 9.0713C24.2297 9.10814 24.2576 9.14334 24.2898 9.17602L30.5577 15.5457H11.4701L17.738 9.17602Z" fill="#C4C4C4"/>
<path d="M0.715662 8.28273H12.8024C13.1978 8.28273 13.5181 7.9572 13.5181 7.55546C13.5181 7.15371 13.1978 6.82819 12.8024 6.82819H0.715662C0.32033 6.82819 0 7.15371 0 7.55546C0 7.9572 0.32033 8.28273 0.715662 8.28273Z" fill="#C4C4C4"/>
<path d="M1.96957 4.27491H7.39667C7.792 4.27491 8.11233 3.94939 8.11233 3.54764C8.11233 3.1459 7.792 2.82037 7.39667 2.82037H1.96957C1.57424 2.82037 1.25391 3.1459 1.25391 3.54764C1.25391 3.94939 1.57424 4.27491 1.96957 4.27491Z" fill="#C4C4C4"/>
<path d="M5.96385 13.6969H0.715662C0.32033 13.6969 0 14.0224 0 14.4242C0 14.8259 0.32033 15.1514 0.715662 15.1514H5.96385C6.35918 15.1514 6.67951 14.8259 6.67951 14.4242C6.67951 14.0224 6.35918 13.6969 5.96385 13.6969Z" fill="#C4C4C4"/>
</svg>
