<svg width="24" height="17" viewBox="0 0 24 17" fill="none" xmlns="http://www.w3.org/2000/svg">
<path d="M21.5 0H2.49998C1.122 0 0 1.19212 0 2.65628V14.3438C0 15.8079 1.122 17 2.49998 17H21.4999C22.8779 17 23.9999 15.8079 23.9999 14.3438V2.65628C24 1.19212 22.878 0 21.5 0ZM23 14.3437C23 15.2224 22.327 15.9375 21.5 15.9375H2.49998C1.67297 15.9375 0.999982 15.2224 0.999982 14.3437V2.65628C0.999982 1.77758 1.67297 1.06253 2.49998 1.06253H21.4999C22.3269 1.06253 22.9999 1.77758 22.9999 2.65628V14.3437H23Z" fill="#C4C4C4"/>
<path d="M23.4999 3.1875H0.500015C0.224015 3.1875 0 3.42552 0 3.71877V6.90626C0 7.19951 0.224015 7.43752 0.500015 7.43752H23.5C23.776 7.43752 24 7.19951 24 6.90626V3.71877C24 3.42552 23.7759 3.1875 23.4999 3.1875ZM23 6.37499H0.999982V4.24998H22.9999V6.37499H23Z" fill="#C4C4C4"/>
<path d="M9.5 10.625H3.50001C3.22402 10.625 3 10.863 3 11.1563C3 11.4495 3.22402 11.6875 3.50001 11.6875H9.5C9.776 11.6875 10 11.4495 10 11.1562C10 10.863 9.776 10.625 9.5 10.625Z" fill="#C4C4C4"/>
<path d="M9.5 12.75H3.50001C3.22402 12.75 3 12.988 3 13.2813C3 13.5745 3.22402 13.8125 3.50001 13.8125H9.5C9.776 13.8125 10 13.5745 10 13.2813C9.99997 12.988 9.776 12.75 9.5 12.75Z" fill="#C4C4C4"/>
<path d="M19.5 9.5625H18.5C17.673 9.5625 17 10.2775 17 11.1562V12.2187C17 13.0974 17.673 13.8125 18.5 13.8125H19.5C20.327 13.8125 21 13.0974 21 12.2187V11.1562C21 10.2776 20.327 9.5625 19.5 9.5625ZM20 12.2188C20 12.512 19.776 12.75 19.5 12.75H18.5C18.224 12.75 18 12.512 18 12.2188V11.1563C18 10.863 18.224 10.625 18.5 10.625H19.5C19.776 10.625 20 10.863 20 11.1563V12.2188Z" fill="#C4C4C4"/>
</svg>
