<svg width="22" height="16" viewBox="0 0 22 16" fill="none" xmlns="http://www.w3.org/2000/svg">
<path d="M20.0664 0H1.93359C0.868742 0 0 0.828554 0 1.84615V14.1538C0 15.168 0.864875 16 1.93359 16H20.0664C21.1286 16 22 15.1742 22 14.1538V1.84615C22 0.832 21.1351 0 20.0664 0ZM19.7994 1.23077L11.041 9.59315L2.20683 1.23077H19.7994ZM1.28906 13.899V2.09514L7.49714 7.97165L1.28906 13.899ZM2.20056 14.7692L8.41255 8.83815L10.5892 10.8985C10.8412 11.1371 11.2478 11.1363 11.4987 10.8967L13.6211 8.87028L19.7994 14.7692H2.20056ZM20.7109 13.899L14.5326 8L20.7109 2.10101V13.899Z" fill="black"/>
</svg>
