<svg width="75" height="72" viewBox="0 0 75 72" fill="none" xmlns="http://www.w3.org/2000/svg">
<path d="M66.6614 25.507L74.571 17.528C74.8971 17.1996 75.0505 16.7349 74.9852 16.2749C74.9206 15.8148 74.6442 15.4119 74.2402 15.188L64.7313 9.9208C64.0223 9.52829 63.132 9.78977 62.7423 10.5049C62.3532 11.2207 62.6119 12.1189 63.3214 12.5114L71.1194 16.8307L64.3313 23.6778L39.917 10.154L46.7045 3.30697L53.5658 7.10799C54.2748 7.5005 55.1657 7.23959 55.5548 6.52384C55.9445 5.80866 55.6853 4.90992 54.9758 4.51741L47.1508 0.182463C46.5798 -0.133855 45.8702 -0.0316869 45.4102 0.432978L37.5 8.41251L29.5898 0.432978C29.1292 -0.0316869 28.4197 -0.133278 27.8492 0.182463L0.759769 15.188C0.355791 15.4119 0.0794154 15.8142 0.014756 16.2749C-0.0504755 16.7349 0.102876 17.1996 0.429034 17.528L8.33864 25.507L0.429034 33.4854C0.102876 33.8144 -0.0504755 34.2785 0.014756 34.7391C0.0794154 35.1991 0.355791 35.602 0.759769 35.8254L8.94575 40.3601V55.5168C8.94575 56.0565 9.23701 56.5529 9.70564 56.8127L36.795 71.8176C37.0148 71.9394 37.2574 72 37.5 72C37.7426 72 37.9852 71.9394 38.205 71.8176L65.2944 56.8127C65.763 56.5529 66.0542 56.0565 66.0542 55.5168V40.3601L74.2402 35.826C74.6442 35.602 74.9206 35.1991 74.9852 34.7391C75.0505 34.279 74.8971 33.8144 74.571 33.4859L66.6614 25.507ZM37.5 38.8258L13.4542 25.5064L37.5 12.1864L61.5458 25.5064L37.5 38.8258ZM28.2961 3.30697L35.083 10.154L10.6687 23.6778L3.88116 16.8307L28.2961 3.30697ZM10.6698 27.3356L35.0841 40.8594L28.2961 47.707L3.88116 34.1832L10.6698 27.3356ZM63.1245 54.6429L38.9649 68.0252V52.9199C38.9649 52.1037 38.3091 51.4422 37.5 51.4422C36.6909 51.4422 36.0352 52.1037 36.0352 52.9199V68.0252L11.8755 54.6429V41.9832L27.8492 50.8315C28.0706 50.9539 28.3132 51.0139 28.5536 51.0139C28.9329 51.0139 29.3083 50.865 29.5898 50.581L37.5 42.6014L45.4102 50.581C45.6917 50.8655 46.0671 51.0139 46.4464 51.0139C46.6868 51.0139 46.9294 50.9539 47.1508 50.8315L63.1245 41.9832V54.6429ZM46.7045 47.707L39.9164 40.8588L64.3308 27.3356L71.1194 34.1826L46.7045 47.707Z" fill="black"/>
<path d="M59.2969 10.0745C59.682 10.0745 60.0585 9.91637 60.3326 9.64103C60.6049 9.36627 60.7617 8.9853 60.7617 8.59683C60.7617 8.20778 60.6049 7.82682 60.3326 7.55206C60.0602 7.27672 59.682 7.11914 59.2969 7.11914C58.9101 7.11914 58.5336 7.27672 58.2612 7.55206C57.9871 7.82682 57.832 8.20778 57.832 8.59683C57.832 8.9853 57.9871 9.36627 58.2612 9.64103C58.5336 9.91637 58.9118 10.0745 59.2969 10.0745Z" fill="black"/>
<path d="M37.5 46.5371C37.1149 46.5371 36.7367 46.6947 36.4643 46.97C36.1919 47.2459 36.0352 47.6258 36.0352 48.0148C36.0352 48.4044 36.1919 48.7842 36.4643 49.0607C36.7367 49.3355 37.1149 49.4925 37.5 49.4925C37.8851 49.4925 38.2633 49.3355 38.5357 49.0607C38.8081 48.7842 38.9649 48.4044 38.9649 48.0148C38.9649 47.6258 38.8081 47.2459 38.5357 46.97C38.2633 46.6947 37.8851 46.5371 37.5 46.5371Z" fill="black"/>
</svg>
