<svg width="72" height="72" viewBox="0 0 72 72" fill="none" xmlns="http://www.w3.org/2000/svg">
<g clip-path="url(#clip0)">
<path d="M40.5673 12.4563L40.5661 12.4574L37.7958 15.3121L36.0017 17.1609L34.2076 15.3121L31.4373 12.4574L31.4345 12.4545C25.1839 5.99229 15.2005 5.09368 8.61377 10.7054L40.5673 12.4563ZM40.5673 12.4563C46.8336 5.99059 56.8047 5.09445 63.3905 10.7061C71.1078 17.2937 71.5228 29.1512 64.5954 36.3001L64.5949 36.3006M40.5673 12.4563L64.5949 36.3006M64.5949 36.3006L37.3845 64.397C37.3843 64.3972 37.3842 64.3973 37.384 64.3975C36.6086 65.1972 35.3808 65.1972 34.6054 64.3975C34.6052 64.3973 34.6051 64.3972 34.6049 64.397L7.3955 36.3017M64.5949 36.3006L7.3955 36.3017M7.3955 36.3017C0.48012 29.1525 0.895388 17.2934 8.61353 10.7057L7.3955 36.3017Z" stroke="black" stroke-width="5"/>
</g>
<defs>
<clipPath id="clip0">
<rect width="72" height="72" fill="white"/>
</clipPath>
</defs>
</svg>
