<svg width="19" height="22" viewBox="0 0 19 22" fill="none" xmlns="http://www.w3.org/2000/svg">
<path d="M16.9643 9.625H15.9464V6.53125C15.9464 2.93047 13.054 0 9.5 0C5.94598 0 3.05357 2.93047 3.05357 6.53125V9.625H2.03571C0.91183 9.625 0 10.5488 0 11.6875V19.9375C0 21.0762 0.91183 22 2.03571 22H16.9643C18.0882 22 19 21.0762 19 19.9375V11.6875C19 10.5488 18.0882 9.625 16.9643 9.625ZM12.5536 9.625H6.44643V6.53125C6.44643 4.82539 7.81629 3.4375 9.5 3.4375C11.1837 3.4375 12.5536 4.82539 12.5536 6.53125V9.625Z" fill="black"/>
</svg>
