<svg width="15" height="15" viewBox="0 0 15 15" fill="none" xmlns="http://www.w3.org/2000/svg">
<path fill-rule="evenodd" clip-rule="evenodd" d="M9.00268 6.00604C9.00268 7.66845 7.65672 9.01208 6.00134 9.01208C4.34596 9.01208 3 7.66845 3 6.00604C3 4.34364 4.34596 3 6.00134 3C7.65672 3 9.00268 4.34364 9.00268 6.00604ZM9.16732 11.1093C8.2483 11.6815 7.16339 12.0121 6.00134 12.0121C2.68689 12.0121 0 9.32309 0 6.00604C0 2.689 2.68689 0 6.00134 0C9.31579 0 12.0027 2.689 12.0027 6.00604C12.0027 7.16289 11.6759 8.24335 11.1096 9.15999L15 13.0535L13.055 15L9.16732 11.1093Z" fill="black"/>
</svg>
