<svg width="15" height="15" viewBox="0 0 15 15" fill="none" xmlns="http://www.w3.org/2000/svg">
<path d="M14.4337 6.19561L8.31534 6.19531C8.04517 6.19531 7.82617 6.41428 7.82617 6.68445V8.63899C7.82617 8.90911 8.04517 9.12813 8.31531 9.12813H11.7608C11.3835 10.1073 10.6793 10.9273 9.78092 11.4483L11.2501 13.9915C13.6068 12.6285 15.0001 10.237 15.0001 7.55996C15.0001 7.17878 14.972 6.90629 14.9158 6.59946C14.8731 6.36635 14.6707 6.19561 14.4337 6.19561Z" fill="#167EE6"/>
<path d="M7.50004 12.0658C5.81389 12.0658 4.3419 11.1445 3.55132 9.78125L1.00818 11.2471C2.30237 13.4901 4.7268 15.0006 7.50004 15.0006C8.8605 15.0006 10.1442 14.6343 11.25 13.9959V13.9924L9.78089 11.4492C9.10888 11.8389 8.33122 12.0658 7.50004 12.0658Z" fill="#12B347"/>
<path d="M11.25 13.995V13.9915L9.78085 11.4482C9.10884 11.838 8.33124 12.0649 7.5 12.0649V14.9996C8.86046 14.9996 10.1442 14.6333 11.25 13.995Z" fill="#0F993E"/>
<path d="M2.93478 7.50042C2.93478 6.6693 3.1616 5.89173 3.55128 5.21975L1.00813 3.75391C0.366269 4.85626 0 6.13647 0 7.50042C0 8.86437 0.366269 10.1446 1.00813 11.2469L3.55128 9.78109C3.1616 9.10911 2.93478 8.33154 2.93478 7.50042Z" fill="#FFD500"/>
<path d="M7.50004 2.93478C8.59958 2.93478 9.60956 3.32549 10.3984 3.97538C10.5931 4.13569 10.8759 4.12412 11.0542 3.94585L12.4391 2.56098C12.6413 2.35872 12.6269 2.02764 12.4108 1.84019C11.0891 0.693545 9.36939 0 7.50004 0C4.7268 0 2.30237 1.51046 1.00818 3.75348L3.55132 5.21932C4.3419 3.85605 5.81389 2.93478 7.50004 2.93478Z" fill="#FF4B26"/>
<path d="M10.3984 3.97538C10.593 4.13569 10.8759 4.12412 11.0542 3.94585L12.439 2.56098C12.6413 2.35872 12.6268 2.02764 12.4108 1.84019C11.0891 0.693515 9.36935 0 7.5 0V2.93478C8.59951 2.93478 9.60952 3.32549 10.3984 3.97538Z" fill="#D93F21"/>
</svg>
