<svg width="16" height="19" viewBox="0 0 16 19" fill="none" xmlns="http://www.w3.org/2000/svg">
<g clip-path="url(#clip0)">
<path d="M8.00357 5.23208C5.73214 5.23208 3.89999 7.13579 3.89999 9.49595C3.89999 11.8561 5.73214 13.7598 8.00357 13.7598C10.275 13.7598 12.1071 11.8561 12.1071 9.49595C12.1071 7.13579 10.275 5.23208 8.00357 5.23208ZM8.00357 12.268C6.53571 12.268 5.33571 11.0249 5.33571 9.49595C5.33571 7.96704 6.53214 6.72388 8.00357 6.72388C9.47499 6.72388 10.6714 7.96704 10.6714 9.49595C10.6714 11.0249 9.47142 12.268 8.00357 12.268ZM13.2321 5.05767C13.2321 5.6106 12.8036 6.0522 12.275 6.0522C11.7429 6.0522 11.3179 5.60688 11.3179 5.05767C11.3179 4.50845 11.7464 4.06313 12.275 4.06313C12.8036 4.06313 13.2321 4.50845 13.2321 5.05767ZM15.95 6.06704C15.8893 4.73481 15.5964 3.55474 14.6571 2.58247C13.7214 1.6102 12.5857 1.30591 11.3036 1.23911C9.98214 1.16118 6.02142 1.16118 4.69999 1.23911C3.42142 1.3022 2.28571 1.60649 1.34642 2.57876C0.407136 3.55103 0.11785 4.7311 0.0535645 6.06333C-0.0214355 7.43638 -0.0214355 11.5518 0.0535645 12.9249C0.114279 14.2571 0.407136 15.4372 1.34642 16.4094C2.28571 17.3817 3.41785 17.686 4.69999 17.7528C6.02142 17.8307 9.98214 17.8307 11.3036 17.7528C12.5857 17.6897 13.7214 17.3854 14.6571 16.4094C15.5929 15.4372 15.8857 14.2571 15.95 12.9249C16.025 11.5518 16.025 7.44009 15.95 6.06704ZM14.2429 14.3981C13.9643 15.1254 13.425 15.6858 12.7214 15.979C11.6679 16.4131 9.16785 16.3129 8.00357 16.3129C6.83928 16.3129 4.33571 16.4094 3.28571 15.979C2.58571 15.6895 2.04642 15.1291 1.76428 14.3981C1.34642 13.3034 1.44285 10.7057 1.44285 9.49595C1.44285 8.28618 1.34999 5.68481 1.76428 4.5938C2.04285 3.86645 2.58214 3.3061 3.28571 3.01294C4.33928 2.57876 6.83928 2.67895 8.00357 2.67895C9.16785 2.67895 11.6714 2.58247 12.7214 3.01294C13.4214 3.30239 13.9607 3.86274 14.2429 4.5938C14.6607 5.68852 14.5643 8.28618 14.5643 9.49595C14.5643 10.7057 14.6607 13.3071 14.2429 14.3981Z" fill="white"/>
</g>
<defs>
<clipPath id="clip0">
<rect width="16" height="19" fill="white"/>
</clipPath>
</defs>
</svg>
