<svg width="19" height="19" viewBox="0 0 19 19" fill="none" xmlns="http://www.w3.org/2000/svg">
<path d="M17.0469 5.62997C17.059 5.79875 17.059 5.96756 17.059 6.13633C17.059 11.2841 13.1409 17.2156 5.97969 17.2156C3.77347 17.2156 1.72399 16.5766 0 15.4676C0.313463 15.5037 0.614828 15.5158 0.940352 15.5158C2.76075 15.5158 4.43654 14.9009 5.77474 13.8521C4.06281 13.8159 2.62816 12.6947 2.13386 11.1515C2.375 11.1877 2.6161 11.2118 2.8693 11.2118C3.2189 11.2118 3.56855 11.1636 3.89404 11.0792C2.10978 10.7175 0.771541 9.15028 0.771541 7.25752V7.20931C1.28992 7.49865 1.89276 7.67949 2.53168 7.70357C1.48282 7.00432 0.795662 5.81081 0.795662 4.46054C0.795662 3.73721 0.98852 3.07414 1.3261 2.49546C3.24299 4.85839 6.12435 6.40151 9.35527 6.57032C9.29501 6.28098 9.25883 5.97962 9.25883 5.67821C9.25883 3.53225 10.9949 1.78418 13.1529 1.78418C14.274 1.78418 15.2867 2.25436 15.998 3.01387C16.8781 2.8451 17.722 2.51958 18.4695 2.07352C18.1801 2.97773 17.5653 3.73725 16.7576 4.21944C17.5412 4.1351 18.3007 3.91804 18.9999 3.61668C18.4696 4.38822 17.8065 5.07537 17.0469 5.62997Z" fill="white"/>
</svg>
